<svg xmlns="http://www.w3.org/2000/svg" viewBox="0 0 360 520"><defs><linearGradient id="h" x1="0" x2="1"><stop stop-color="#342f68"/><stop offset="1" stop-color="#8b7cff"/></linearGradient><linearGradient id="c" x1="0" y1="0" x2="0" y2="1"><stop stop-color="#ff9dcc"/><stop offset="1" stop-color="#ff6fae"/></linearGradient></defs><ellipse cx="185" cy="490" rx="125" ry="22" fill="#000" opacity=".25"/><path d="M82 454c9-98 30-158 103-165 75 7 98 70 104 165z" fill="url(#c)"/><path d="M110 184c-12-104 37-156 91-151 64 6 96 77 59 169-22 53-127 48-150-18" fill="url(#h)"/><circle cx="186" cy="188" r="88" fill="#ffe4d5"/><path d="M102 177c5-88 48-127 102-125 43 2 78 31 84 91-35-6-56-27-70-51-21 35-62 64-116 85" fill="url(#h)"/><ellipse cx="155" cy="194" rx="10" ry="15" fill="#2f3159"/><ellipse cx="218" cy="194" rx="10" ry="15" fill="#2f3159"/><circle cx="158" cy="189" r="3" fill="#fff"/><circle cx="221" cy="189" r="3" fill="#fff"/><path d="M171 229q17 14 34 0" fill="none" stroke="#d56d7e" stroke-width="5" stroke-linecap="round"/><circle cx="137" cy="221" r="13" fill="#ff91a9" opacity=".35"/><circle cx="237" cy="221" r="13" fill="#ff91a9" opacity=".35"/><path d="M102 330q82-53 167 0l-23 37q-60-39-121 0z" fill="#f7f1ff"/><path d="M137 344l48 44 47-44v125h-95z" fill="#30345f"/><path d="M56 371q61-36 118 35l-28 35q-49-44-91-20z" fill="#ffe4d5"/><rect x="40" y="382" width="114" height="78" rx="10" fill="#f8f4ff" transform="rotate(-8 40 382)"/><path d="M62 402h68M60 418h58M58 434h71" stroke="#9a91d8" stroke-width="5" stroke-linecap="round"/><path d="M245 360q48-5 66 35l-25 20q-19-29-55-13z" fill="#ffe4d5"/><circle cx="287" cy="405" r="11" fill="#ffe4d5"/><path d="M279 385l18-34" stroke="#8b7cff" stroke-width="8" stroke-linecap="round"/><path d="M289 348l11-16" stroke="#ffdf70" stroke-width="10" stroke-linecap="round"/></svg>