<svg xmlns="http://www.w3.org/2000/svg" viewBox="0 0 512 512" role="img" aria-label="FlipWords">
  <defs>
    <linearGradient id="background" x1="56" y1="48" x2="456" y2="464" gradientUnits="userSpaceOnUse">
      <stop offset="0" stop-color="#168f86" />
      <stop offset="0.55" stop-color="#0e141b" />
      <stop offset="1" stop-color="#e76650" />
    </linearGradient>
    <filter id="shadow" x="-20%" y="-20%" width="140%" height="140%">
      <feDropShadow dx="0" dy="18" stdDeviation="18" flood-color="#000000" flood-opacity="0.32" />
    </filter>
  </defs>
  <rect width="512" height="512" rx="112" fill="url(#background)" />
  <g filter="url(#shadow)">
    <rect x="120" y="106" width="248" height="300" rx="38" fill="#f2f7fb" opacity="0.2" transform="rotate(-7 244 256)" />
    <rect x="146" y="96" width="250" height="318" rx="40" fill="#f2f7fb" />
    <rect x="170" y="128" width="202" height="40" rx="20" fill="#168f86" />
    <rect x="170" y="190" width="126" height="20" rx="10" fill="#30404f" opacity="0.42" />
    <rect x="170" y="226" width="172" height="20" rx="10" fill="#30404f" opacity="0.3" />
    <path d="M170 316h44v-98h82v-36H170v134Zm150 0h42l18-76 18 76h42l38-134h-44l-17 76-20-76h-34l-20 76-17-76h-44l38 134Z" fill="#0e141b" />
    <circle cx="352" cy="356" r="34" fill="#e76650" />
  </g>
</svg>
